<svg width="195" height="198" viewBox="0 0 195 198" fill="none" xmlns="http://www.w3.org/2000/svg">
<g opacity="0.45">
<path d="M96.8527 99.8363L140.844 55.8452M140.844 55.8452V35.1435L164.78 11.2072V28.0273H186.129L158.311 55.8452H140.844Z" stroke="#143DFF" stroke-width="3" stroke-linecap="round"/>
<path d="M180.827 52.1415C191.808 72.5916 195.242 96.3819 190.501 119.196C185.761 142.01 173.163 162.329 155.001 176.471C136.839 190.613 114.314 197.645 91.512 196.297C68.7095 194.949 47.1305 185.309 30.6904 169.119C14.2497 152.929 4.03748 131.259 1.91341 108.039C-0.210665 84.818 5.89502 61.5928 19.118 42.5758C32.3405 23.5596 51.8018 10.0131 73.9678 4.38503C96.1332 -1.24296 119.543 1.41761 139.952 11.8868" stroke="#143DFF" stroke-width="3"/>
<path d="M125.3 83.6847C129.072 90.7005 130.252 98.8642 128.623 106.693C126.995 114.522 122.668 121.491 116.434 126.34C110.201 131.188 102.474 133.596 94.6539 133.134C86.8335 132.673 79.4295 129.37 73.7864 123.819C68.1427 118.267 64.6342 110.834 63.9045 102.865C63.1747 94.8956 65.2728 86.9265 69.8134 80.4036C74.3536 73.8813 81.0331 69.2389 88.6361 67.3106C96.2386 65.3824 104.268 66.2936 111.27 69.8813" stroke="#143DFF" stroke-width="3"/>
<path d="M151.76 68.8863C158.948 82.1429 161.196 97.5644 158.093 112.353C154.99 127.141 146.744 140.313 134.854 149.482C122.964 158.651 108.217 163.21 93.2879 162.335C78.3588 161.461 64.2314 155.212 53.4691 144.716C42.7064 134.22 36.0217 120.172 34.6314 105.12C33.241 90.0685 37.2375 75.0131 45.8934 62.6853C54.549 50.3578 67.2895 41.5752 81.8016 37.9262C96.3135 34.2772 111.64 36.0023 125.002 42.7898" stroke="#143DFF" stroke-width="3"/>
</g>
</svg>
